<svg xmlns="http://www.w3.org/2000/svg" xmlns:xlink="http://www.w3.org/1999/xlink" id="Layer_1" x="0px" y="0px" viewBox="0 0 603.3 378.7" style="enable-background:new 0 0 603.3 378.7;" xml:space="preserve">
<style type="text/css">
	.st0{fill:#9B87FF;}
	.st1{fill:#0B2D4E;}
	.st2{fill:#26A8D1;}
	.st3{fill:#061F33;}
	.st4{fill:#3DC8E8;}
	.st5{clip-path:url(#SVGID_2_);}
	.st6{fill:#B8D1CE;}
	.st7{fill:#FFFFFF;}
	.st8{fill:#F8A17A;}
	.st9{fill:#E5785C;}
	.st10{opacity:0.2;fill:#FFFFFF;enable-background:new    ;}
	.st11{fill:#8070F2;}
	.st12{fill:none;stroke:#0B2D4E;stroke-width:4;stroke-miterlimit:10;}
	.st13{fill:#73B8D4;}
	.st14{fill:#FFC73C;}
	.st15{clip-path:url(#SVGID_4_);}
	.st16{fill:none;stroke:#26A8D1;stroke-width:5;stroke-miterlimit:10;}
	.st17{clip-path:url(#SVGID_6_);}
	.st18{fill:none;stroke:#3DC8E8;stroke-width:5;stroke-miterlimit:10;}
	.st19{fill:#EFB126;}
	.st20{opacity:0.1;fill:#231F20;enable-background:new    ;}
	.st21{fill:#DBCDFE;}
	.st22{fill:none;stroke:#FFFFFF;stroke-width:4;stroke-miterlimit:10;}
	.st23{fill:#ACBCC2;}
</style>
<g id="Layer_2_1_">
	<g id="Layer_1-2">
		<path class="st0" d="M245.5,137.9c-10.3,10.6-1,36.6,15.5,32.8c17.7-4,15-31.6-1-36.2C253.8,132.8,248.8,134.5,245.5,137.9z"></path>
		<path class="st1" d="M327.6,172.2c-3.8,3.9-8.6,6.7-13.9,8c-10.3,2.4-20-2.2-28.6-7.4c-9.2-5.6-18.4-11.3-27-17.6    c-6.2-4.6-12.6-9.4-16.4-16.2c-4.5-7.9-4.7-17.4-3.8-26.2c0.6-6-2.2-11.4-3.4-17.2c-2.4-11.2,0.1-24.4,10.5-30.8    c5.3-3.3,10.9-2.8,16.5-0.4c4.3,1.8,8.3,4.4,12.8,5.7c9.6,2.7,20-1,29.3-3c6.8-1.4,14.2-2.1,20.9,0.1c7.5,2.5,11,8,15.1,14.3    c3.5,5.4,8.8,9.5,13,14.3c5.6,6.4,7.3,14.6,5.5,22.8c-2.8,12.2-9.8,22.6-15.9,33.3C338.1,158.6,333.6,166.4,327.6,172.2z"></path>
		<path class="st2" d="M250.8,287.6c12.4-19.1,20.1-42.5,9.3-64.1c-1.1-2.2-2.4-4.6-4.7-5.3c-5-1.7-11.7,0.1-16.1,2.7    c-15,8.8-24.2,25.4-32.7,40.2c-8.8,15.4-16.4,31.3-25.2,46.6c-3.6,6.2-7.2,12.5-9.1,19.4c-1.7,6-1.9,13,0.4,18.9    c9.9,25.6,37.1-5.8,45.4-15.2C230,317.2,240.9,302.8,250.8,287.6z"></path>
		<path class="st3" d="M312.5,171.9c-1.3,1.4-2.9,2.6-4.6,3.5c-4.5,2.2-9.9,2.1-14.7,0.6s-9.2-4.2-13.3-7.1    c-11.1-7.9-24.9-18.3-31.5-30.4c-4.1-7.5-7.1-16.3-3.2-24.4c3.4-7.1,10.2-12,18-12.9c0.6-0.1,1.3,0,1.9,0.2    c0.6,0.4,1.1,0.9,1.5,1.6c2.8,4.6,5.1,9.7,8.5,13.9c3.8,4.5,8.3,8.2,13.4,11.1c8.2,5,17.1,8.6,24.8,14.3    c5.5,4.1,5.7,13.3,4.3,19.7C316.8,165.7,315.1,169.1,312.5,171.9z"></path>
		<path class="st4" d="M374.8,263.2c3.9-14.3,6-29-2.9-38.7c-4-4.4-11.2-7.5-17-9.7c-11.4-4.3-23.1-10-35.3-11.8    c-12.9-2-27.2-3.2-40.1-0.4c-8.2,1.8-15.8,5.1-23.1,8.6c-9.8,4.8-16.8,8-19.9,17.8c-3.4,10.8-5.7,22-6.8,33.2    c-3.5,32.8,1.1,65.8,1,98.6c0,3.2,0,6.6,1.7,9.5c3.2,5.7,12,5.8,18.3,5.8l62.6-0.1c7.9,0,15.7,0.8,23.5,2.4    c6.3,1.3,12.8-1.6,16-7.3c3.1-5.2,3.3-11.3,3.7-17.1c1.3-22.9,5.1-45.5,11.2-67.6C369.4,280,372.5,271.8,374.8,263.2z"></path>
		<g>
			<defs>
				<path id="SVGID_1_" d="M374.8,263.2c3.9-14.3,6-29-2.9-38.7c-4-4.4-11.2-7.5-17-9.7c-11.4-4.3-23.1-10-35.3-11.8      c-12.9-2-27.2-3.2-40.1-0.4c-8.2,1.8-15.8,5.1-23.1,8.6c-9.8,4.8-16.8,8-19.9,17.8c-3.4,10.8-5.7,22-6.8,33.2      c-3.5,32.8,1.1,65.8,1,98.6c0,3.2,0,6.6,1.7,9.5c3.2,5.7,12,5.8,18.3,5.8l62.6-0.1c7.9,0,15.7,0.8,23.5,2.4      c6.3,1.3,12.8-1.6,16-7.3c3.1-5.2,3.3-11.3,3.7-17.1c1.3-22.9,5.1-45.5,11.2-67.6C369.4,280,372.5,271.8,374.8,263.2z"></path>
			</defs>
			<clipPath id="SVGID_2_">
				<use xlink:href="#SVGID_1_" style="overflow:visible;"></use>
			</clipPath>
			<g class="st5">
				<path class="st2" d="M324.4,221.5c4.4-7.1,5.4-16-0.4-22.9c-2.7-3.1-7.3-3.5-11.3-3.6c-7.9-0.1-15.7,0.7-23.4,2.4      c-7.3,1.6-14.8,4.4-17.9,11.5c-2.2,5.3-1.6,11.4,1.6,16.1c2.9,4.5,7.5,7.6,12.7,8.8c8.4,1.9,18.2,1.7,26.3-1.6      C317,230.1,321.4,226.3,324.4,221.5z"></path>
				<path class="st2" d="M242.4,374.9c8.4,4,17.6,6,26.7,7.5c25.6,4.3,51.7,5.2,77.7,3.9c5.5-0.3,11.6-0.8,15.7-4.6      c3-2.8,4.5-6.9,5.5-10.9c3.5-13.6,3.4-27.9,3.4-42c-0.1-11-0.1-22-0.2-33c0-3.8,2.5-27.1-3.5-26.8c-0.6,0.1-1.3,0.3-1.8,0.7      c-3,2.1-4.5,5.7-5.9,9c-4.3,10.6-8,27.5-17,34.8c-9.5,7.8-20.4,11.4-31.9,15.1c-19.9,6.5-42.1,9.2-59,22.5      c-2.8,2.2-5.5,4.7-8.1,7.1c-2.3,2.2-5.5,4.5-7,7.6C234.9,370.8,238.4,373,242.4,374.9z"></path>
			</g>
		</g>
		<path class="st4" d="M419.7,297.3c3.2,5.7,6.3,11.4,9.4,17.2c6.3,11.7,17.9,37.7-0.7,44.1c-9.4,3.2-14.8,0.1-21-6.8    c-23.5-25.9-43.5-54.9-59.4-86.1c-5.9-11.6-21.6-41.8-2.5-48.7c6.1-2.2,12.8-1.7,18.5,1.4c2.5,1.5,4.9,3.2,7,5.2    c13.8,12.3,23.5,28.1,32.3,44.1C408.8,277.7,414.3,287.5,419.7,297.3z"></path>
		<path class="st4" d="M324.7,339.3l4.9-0.8c8-1.2,16-2.7,23.9-4.4c15.7-3.5,31.5-6.1,47.5-7.8c1.7-0.2,3.4-0.3,5.1-0.4    c7.2-0.5,14.7-0.7,21.2,2.6s11.8,11.2,10.1,18.9c-1.1,5.4-5.3,9.4-10,11.5s-9.8,2.4-14.8,2.8l-49,3.3c-8.1,0.5-16.2,1.1-24.2,1.7    c-7.7,0.5-15.5,1.6-23.3,1.6c-3.3,0-6.9-0.6-9.7-2.7c-3.8-3-6.1-9.3-6.5-14.2c-0.2-2.6,0.3-5.7,2.3-7.3c1.1-0.8,2.4-1.2,3.8-1.4    C312.4,341.5,318.5,340.3,324.7,339.3z"></path>
		<rect x="184.2" y="345" class="st6" width="77.4" height="15.1"></rect>
		<path class="st6" d="M197.4,346.5l-19.5-99.4c-0.5-2.6-2.8-4.5-5.5-4.5H42.6c-1.8,0-3.5,0.9-4.5,2.3l0,0l-6,7.1l5.3-1.2l19.2,97.9    c0.5,2.6,2.8,4.5,5.5,4.5h129.8c3.1,0,5.6-2.5,5.6-5.6C197.6,347.3,197.5,346.9,197.4,346.5z"></path>
		<path class="st7" d="M56.2,360.2H186c3.1,0,5.6-2.5,5.6-5.6c0-0.4,0-0.7-0.1-1.1L172,254.1c-0.5-2.6-2.8-4.5-5.5-4.5H36.7    c-3.1,0-5.6,2.5-5.6,5.6c0,0.4,0,0.7,0.1,1.1l19.5,99.4C51.2,358.3,53.5,360.2,56.2,360.2z"></path>
		<path class="st6" d="M97.1,302.4c1.4,6.9,7.3,11.9,14.3,12.1c6.7,0,11.1-5.4,9.8-12.1s-7.7-12.1-14.3-12.1S95.8,295.7,97.1,302.4z    "></path>
		<path class="st8" d="M306.3,363.6c-3.9,0.8-6.9,4.2-10.7,5.3c-2.8,0.7-5.7,0.5-8.3-0.6c-2.4-0.9-4.9-1.4-7.4-2.2    c-1.9-0.6-4.5-1.9-6.6-1.5c-5.5,1.1-10.9,5-15.8,7.5c-1.1,0.7-2.3,1-3.5,0.9c-1.2-0.2-2.2-1.7-1.5-2.8c-1.4,1.3-3.3,4-5.6,3    c-1-0.4-1.4-1.5-1-2.5c0,0,0,0,0,0c-0.7,0.9-1.7,1.7-2.7,2.2c-1.1,0.5-2.4,0.2-3.2-0.7c-0.3-0.5-0.4-1-0.4-1.6    c0-1.9,0.4-3.8,1.3-5.5c3.9-8.5,12.7-14.8,20.2-19.9c1.3-1,2.7-1.8,4.2-2.3c1.4-0.4,2.8-0.5,4.2-0.5c9.3,0,18.6,1.5,27.4,4.5    c1.9,0.6,4,0.1,5.9-0.3c1.4-0.4,2.8-0.4,4.2-0.1c1.5,0.6,2.8,1.6,3.7,3c1.9,2.5,2.9,5.5,2.8,8.5c-0.2,2.3-0.3,4.7-3,5.2    c-1.1,0.2-2.2,0.1-3.3,0.2C306.8,363.6,306.5,363.6,306.3,363.6z"></path>
		<path class="st8" d="M307.9,226.2c5.7-1.8,10.3-5.4,12.1-11c1.6-5.1-0.9-10.8-1.4-16c-0.4-4.9-0.5-9.9-0.2-14.8    c0.3-4.6,0.7-9.3,0-13.8c-0.4-2.6-1.8-2.1-4.5-3.2s-5.6-1-8.4-1c-5.8,0-21.1-0.4-24.7,4.7c-1.7,2.4-1.8,5.3-1.9,8.1    c-0.1,3.4-0.7,7.8-1.2,12.5c-0.2,2.1-0.1,4.2-0.4,6.3c-0.5,2.3-1.1,4.6-2,6.8c-2.9,8.5-0.2,16.5,9,20.4    C291.9,228.2,300.2,228.5,307.9,226.2z"></path>
		<path class="st9" d="M318.5,170.7c-0.4-2.6-1.8-2.1-4.5-3.2s-5.6-1-8.4-1c-5.8,0-21.1-0.4-24.7,4.7c-1.7,2.4-1.8,5.3-1.9,8.1    c-0.1,3.4-0.7,7.8-1.2,12.5c-0.2,2.1-0.1,4.2-0.4,6.3c-0.3,1.8-0.8,3.5-1.5,5.2c5.8,2.1,12,2.5,18,1.1    c10.6-2.6,18.7-9.2,24.5-17.9c0-0.7,0-1.3,0.1-2C318.7,180,319.2,175.2,318.5,170.7z"></path>
		<path class="st8" d="M327,137.3c0-7.2-1-14.4-3.1-21.3c-8.7-26.5-41.8-33.1-61.7-14c-22.2,21.2-13.7,72,9.7,89.8    c6.4,4.8,14.6,6.4,22.3,4.4C317.2,190,327.1,161.7,327,137.3z"></path>
		<path class="st9" d="M323.8,116c-8.7-26.5-41.8-33.1-61.7-14c-2.5,2.4-4.7,5.2-6.4,8.3c1.1,0.9,2.3,1.8,3.5,2.5    c8.4,5,17.5,8.9,27,11.3c4.1,1,8.4,1.9,11.7,4.5c1.9,1.5,3.4,3.4,4.5,5.5c1.4,2.6,2.5,5.3,3.3,8.1c2.1,6,3,12.4,3.8,18.6    c0,0.7,0.3,1.3,0.7,1.8c0.5,0.4,1.1,0.6,1.8,0.5c3.7-0.1,5.4-3.6,8.3-5.5c1.7-1.1,3.4-2.3,5.1-3.5c1-5.5,1.5-11.1,1.5-16.7    C327,130.1,326,122.9,323.8,116z"></path>
		<path class="st1" d="M306.3,133c1,2.8,1.8,5.6,2.3,8.5c1.3,6.2,1.3,12.6,1.4,19c-0.1,0.7,0.1,1.3,0.4,1.9c0.5,0.4,1.1,0.7,1.7,0.6    c3.7,0.4,5.9-2.9,8.9-4.4c3.2-1.4,6.3-3.2,9.2-5.3c7.9-6.2,6.1-16.5,5.9-25.6c-0.1-5-0.3-10.1-1.8-14.9c-1.7-5.2-4.6-10-8.4-13.9    c-10.8-11.6-26.9-17.6-42.6-16.6c-7.8,0.5-16.5,3.8-22,9.4c-4.8,4.8,1,11.4,5,14.5c7.7,6.1,16.2,11.1,25.2,14.7c3.9,1.6,8,3,11,6    C304.2,128.7,305.4,130.8,306.3,133z"></path>
		<path class="st8" d="M322.6,138c10.2-5.6,13.3,8.5,11.6,15.5c-0.7,2.9-1.9,5.7-3.7,8.1c-2.4,3.2-9.3,8.5-13.3,5    c-1.8-1.6-2-4.3-2-6.7C315,153.5,315.7,141.8,322.6,138z"></path>
		<path class="st7" d="M469.7,300.9c1.3-2.8,1.4-6,0.3-8.9c-1-2.9-2.4-5.6-4.1-8.1c-1.9-2.8-3.4-5.9-4.5-9.1    c-1-3.6-0.9-7.4,0.2-10.9c2.1-6.9,6.5-11.9,9.5-17.1c1.6-2.5,2.7-5.3,3.2-8.2c0.6-3,0.3-6.2-1.1-9c2.5,2.2,3.7,5.7,3.9,9.1    c0.1,3.4-0.6,6.9-2,10c-2.6,6.2-6.5,11.3-8,16.8c-0.9,2.6-1.1,5.3-0.5,8c0.5,2.7,1.9,5.4,3.2,8.4c1.5,3,2.5,6.3,2.9,9.6    C472.9,294.8,472.2,298.6,469.7,300.9z"></path>
		<path class="st0" d="M451.7,304.6h38.6l0,0v39.8c0,8.6-6.9,15.5-15.5,15.5h-7.6c-8.6,0-15.5-6.9-15.5-15.5L451.7,304.6    L451.7,304.6z"></path>
		<path class="st0" d="M493,317.1c-9.4-0.1-17.1,7.4-17.2,16.7c-0.1,9.4,7.4,17.1,16.7,17.2c9.4,0.1,17.1-7.4,17.2-16.7    c0-0.1,0-0.2,0-0.2C509.8,324.8,502.3,317.2,493,317.1z M493,345.1c-6,0.1-11-4.7-11.1-10.8c-0.1-6,4.7-11,10.8-11.1    c6-0.1,11,4.7,11.1,10.8c0,0.1,0,0.1,0,0.2C503.8,340.1,499,345,493,345.1C493,345.1,493,345.1,493,345.1z"></path>
		<path class="st10" d="M457.5,338.9L457.5,338.9c-1.2,0-2.1-0.9-2.1-2.1v-26.9c0-1.2,0.9-2.1,2.1-2.1l0,0c1.2,0,2.1,0.9,2.1,2.1    v26.9C459.6,338,458.6,338.9,457.5,338.9z"></path>
		<path class="st11" d="M481.4,304.6v45.5c0,5.4-4.4,9.8-9.8,9.8l0,0h8.9c5.4,0,9.8-4.4,9.8-9.8l0,0v-45.5H481.4z"></path>
		<path class="st12" d="M241.1,109.7c-4.4-12.2-13.1-22.1-8.1-35.8c2.9-8,10.6-13.4,19.1-13.5c4.1-0.1,8.1,1,11.6,3    c4.2,2.4,6.9,6.3,11.8,7.6c11.4,3.1,23.2-5.6,34.2-7.7s22.3,1.5,27.6,11.9c2.1,4.1,3,8.8,5.7,12.4c4.6,6.1,13.5,8.2,17.1,14.9    c5.9,11-6.2,26.8-12.4,35.3"></path>
		<path class="st11" d="M289.5,184.4c-2.5,0-5-0.2-7.5-0.6l0.5-3.1c9,1.4,18.1,0.1,26.3-3.7c2-0.9,3.9-2,5.7-3.3    c3-2.2,5.5-4.9,7.4-8.1l2.7,1.6c-2.1,3.6-4.9,6.7-8.2,9.1c-2,1.4-4,2.6-6.2,3.6C303.6,182.9,296.6,184.4,289.5,184.4z"></path>
		<path class="st11" d="M273.1,178.4c3.7-3.2,12-2.9,14.7,0.4c2,2.5,1.4,5.6-0.8,7.6c-2.6,2.5-5.9,2.3-9.2,1.6    C273.7,187.1,268.6,182.2,273.1,178.4z"></path>
		<path class="st13" d="M269.8,81.9c1.8,0.1,3.6,0.1,5.4,0c1.8-0.1,3.5-0.3,5.3-0.6c3.5-0.5,7-1.2,10.6-1.7    c3.6-0.6,7.2-0.8,10.9-0.6c3.7,0.1,7.4,1.1,10.6,2.9c0.8,0.5,1.6,1,2.3,1.6c0.7,0.6,1.4,1.3,2,2c0.6,0.8,1.1,1.6,1.5,2.5    c0.4,0.9,0.8,1.8,1,2.7c0.2,0.9,0.3,1.9,0.3,2.9c0,0.9-0.2,1.9-0.4,2.8c-0.2,0.9-0.4,1.7-0.6,2.6c-0.1,0.8-0.2,1.7-0.1,2.5    c0.2,1.7,0.7,3.4,1.5,4.9c0.7,1.6,1.6,3.1,2.5,4.8c0.9,1.6,1.5,3.3,2,5.1c0.2,0.9,0.3,1.8,0.3,2.7c0,0.9-0.2,1.8-0.5,2.7    c0.4-1.7,0.3-3.6-0.3-5.2c-0.5-1.7-1.3-3.3-2.2-4.8c-0.9-1.5-1.9-3-2.7-4.7c-0.9-1.6-1.5-3.4-1.8-5.2c-0.1-0.9-0.1-1.9,0-2.9    c0.1-0.9,0.3-1.8,0.5-2.7c0.2-0.8,0.3-1.7,0.3-2.5c0-0.8-0.1-1.7-0.3-2.4c-1-3.3-3.2-6-6.1-7.7c-3.1-1.6-6.5-2.6-9.9-2.7    c-3.5-0.3-7.1-0.2-10.6,0.2c-3.5,0.4-7.1,0.9-10.7,1.2c-1.8,0.2-3.6,0.2-5.4,0.2C273.4,82.3,271.6,82.2,269.8,81.9z"></path>
		<path class="st0" d="M326.9,134c-14.4,3.7-19.9,30.7-3.9,36.1c17.2,5.8,29.3-19.1,18-31.4C336.6,134,331.5,132.8,326.9,134z"></path>
		<path class="st11" d="M331.6,137.4c-9.9,1.6-16,22.7-5.8,28.4c11,6.2,21.3-12.5,14.8-23.3C338.1,138.4,334.8,136.9,331.6,137.4z"></path>
		<path class="st0" d="M333.6,135.9l-3.8-0.4c2.6-22.5,1.5-51.2-18.5-60.3c-9.5-4.3-18.1-7.4-33.6-4.4c-1.4-0.2-2.7-0.6-4-1.1    c14-6.8,28.9-2.6,39.2,2C335,81.7,336.4,112.2,333.6,135.9z"></path>
		<path class="st14" d="M492.9,112.4h-81c-21.3,0-38.5-17.3-38.5-38.5V54.9c0-21.3,17.3-38.5,38.5-38.5h81    c21.3,0,38.5,17.3,38.5,38.5v18.9C531.4,95.1,514.2,112.4,492.9,112.4z"></path>
		<polygon class="st14" points="394.2,137.6 394.2,93.5 428.7,112.4   "></polygon>
		<path class="st7" d="M400.8,60.3h71.5c1.9,0,3.4,1.5,3.4,3.4v1.6c0,1.9-1.5,3.4-3.4,3.4h-71.5c-1.9,0-3.4-1.5-3.4-3.4v-1.6    C397.4,61.8,398.9,60.3,400.8,60.3z"></path>
		<path class="st7" d="M485.1,60.3H504c1.9,0,3.4,1.5,3.4,3.4v1.6c0,1.9-1.5,3.4-3.4,3.4h-18.9c-1.9,0-3.4-1.5-3.4-3.4v-1.6    C481.7,61.8,483.2,60.3,485.1,60.3z"></path>
		<path class="st7" d="M504,49.7h-71.5c-1.9,0-3.4-1.5-3.4-3.4v-1.6c0-1.9,1.5-3.4,3.4-3.4H504c1.9,0,3.4,1.5,3.4,3.4v1.6    C507.3,48.2,505.8,49.7,504,49.7z"></path>
		<path class="st7" d="M419.7,49.7h-18.9c-1.9,0-3.4-1.5-3.4-3.4v-1.6c0-1.9,1.5-3.4,3.4-3.4h18.9c1.9,0,3.4,1.5,3.4,3.4v1.6    C423.1,48.2,421.6,49.7,419.7,49.7z"></path>
		<path class="st7" d="M400.8,77.7H449c1.9,0,3.4,1.5,3.4,3.4v1.7c0,1.9-1.5,3.4-3.4,3.4h-48.2c-1.9,0-3.4-1.5-3.4-3.4v-1.7    C397.4,79.2,398.9,77.7,400.8,77.7z"></path>
		<path class="st7" d="M-317.6,519.3h18.9c1.9,0,3.4,1.5,3.4,3.4v1.7c0,1.9-1.5,3.4-3.4,3.4h-18.9c-1.9,0-3.4-1.5-3.4-3.4v-1.7    C-320.9,520.8-319.4,519.3-317.6,519.3z"></path>
		<path class="st4" d="M524.9,139.6c-3.5,0-7-0.5-9.4-3.9c-4.8-6.8-12-12.9-20.2-6c-4.7,4-1.2,12.2-5.2,16.2    c-3.6,3.5-8.1,2.9-10,8.7c-2.7,8.5,5.8,16,8.5,23.4c2.3,6.2-2.8,8.6-5.2,13.4c-1.8,3.7-0.9,7.7,1.1,11.3c3.4,6.3,11,11.3,9.2,19.5    c-1.5,6.8-2.8,12.8,3.2,18c4.1,3.5,11.7,6.7,11.1,13.3c-0.2,2.3-1.8,4.3-2.2,6.6c-0.7,3.6,1.6,7.1,4.3,9.6    c6.2,5.6,11.6,10.9,16.2,18c2,3,9.9,9.9,6.7,14c5.7-7.5,11.8-14.8,17-22.7c4.3-6.5,10.8-16,6.3-24c-1.4-2.5-3.9-4.4-4.6-7.1    c-1.3-5,3.6-9.6,5.4-13.8c2.9-6.6,0.8-14.4-4.3-19.3c-2.4-2.4-5-4.9-5.3-8.3c-0.4-3.6,1.9-7,2.9-10.4c0.9-3.1,1.6-6.3,1.9-9.6    c0.3-2.3,0.3-4.6-0.2-6.8c-1-4.2-4.8-6.6-7.6-9.6c-6.7-7.1-3.2-15.5-6.1-23.8C536.1,138.6,530.4,139.6,524.9,139.6z"></path>
		<g>
			<defs>
				<path id="SVGID_3_" d="M524.9,139.6c-3.5,0-7-0.5-9.4-3.9c-4.8-6.8-12-12.9-20.2-6c-4.7,4-1.2,12.2-5.2,16.2      c-3.6,3.5-8.1,2.9-10,8.7c-2.7,8.5,5.8,16,8.5,23.4c2.3,6.2-2.8,8.6-5.2,13.4c-1.8,3.7-0.9,7.7,1.1,11.3      c3.4,6.3,11,11.3,9.2,19.5c-1.5,6.8-2.8,12.8,3.2,18c4.1,3.5,11.7,6.7,11.1,13.3c-0.2,2.3-1.8,4.3-2.2,6.6      c-0.7,3.6,1.6,7.1,4.3,9.6c6.2,5.6,11.6,10.9,16.2,18c2,3,9.9,9.9,6.7,14c5.7-7.5,11.8-14.8,17-22.7c4.3-6.5,10.8-16,6.3-24      c-1.4-2.5-3.9-4.4-4.6-7.1c-1.3-5,3.6-9.6,5.4-13.8c2.9-6.6,0.8-14.4-4.3-19.3c-2.4-2.4-5-4.9-5.3-8.3c-0.4-3.6,1.9-7,2.9-10.4      c0.9-3.1,1.6-6.3,1.9-9.6c0.3-2.3,0.3-4.6-0.2-6.8c-1-4.2-4.8-6.6-7.6-9.6c-6.7-7.1-3.2-15.5-6.1-23.8      C536.1,138.6,530.4,139.6,524.9,139.6z"></path>
			</defs>
			<clipPath id="SVGID_4_">
				<use xlink:href="#SVGID_3_" style="overflow:visible;"></use>
			</clipPath>
			<g class="st15">
				<path class="st16" d="M533.9,309.9c2.5-28.5,0.2-57.2-5.1-85.3c-5-26.8-11.6-53.6-21.6-79c-3.3-8.4-7-16.6-11.2-24.6"></path>
				<path class="st16" d="M473.5,159.2c14,5,27.4,11.7,39.7,20.1c3.1,2.1,4.8,2.8,7.5,5.5"></path>
				<path class="st16" d="M527.3,215.4c-13.5-8.7-28.7-14.6-44.5-17.2"></path>
				<path class="st16" d="M532.6,252.1c-12.6-10.9-27.7-18.5-44-22.1"></path>
				<path class="st16" d="M519.9,183.9c1-15.1,4.7-29.9,11-43.7"></path>
				<path class="st16" d="M527.1,214.1c6.4-13.7,15.5-25.9,26.8-35.9"></path>
				<path class="st16" d="M533.4,253.2c0.9-4.2,2.4-8.3,4.6-12c2.6-4.3,5.6-8.3,9-11.9c2.4-2.7,4.8-5.4,7.2-8"></path>
			</g>
		</g>
		<path class="st2" d="M568.4,191.5c2.6,0.5,5.1,0.6,7.4-1.6c4.4-4.3,10.5-7.7,15.5-1.6c2.9,3.6-0.8,9,1.5,12.4c2.1,3,5.5,3.2,6,7.7    c0.8,6.6-6.4,10.8-9.4,15.8c-2.5,4.2,0.9,6.6,1.9,10.4c0.8,2.9-0.4,5.7-2.3,8c-3.3,4.1-9.6,6.7-9.4,12.8c0.1,5.1,0.3,9.7-4.8,12.6    c-3.5,2-9.4,3.3-9.9,8.1c-0.2,1.7,0.7,3.4,0.7,5.1c0,2.7-2.2,4.9-4.5,6.3c-5.2,3.2-9.9,6.3-14.2,10.8c-1.8,1.9-8.5,5.8-6.8,9.2    c-3.1-6.2-6.5-12.4-9.2-18.8c-2.2-5.3-5.6-13.1-1.3-18.3c1.3-1.6,3.4-2.6,4.3-4.5c1.6-3.4-1.3-7.5-2-10.8    c-1-5.2,1.3-10.5,5.8-13.4c2-1.4,4.3-2.9,5-5.3c0.8-2.6-0.4-5.4-0.7-7.9c-0.2-2.4-0.3-4.8-0.1-7.2c0.1-1.7,0.4-3.4,1.1-4.9    c1.3-2.9,4.4-4.1,6.8-5.9c5.8-4.2,4.4-10.8,7.7-16.4C560.4,189.3,564.4,190.8,568.4,191.5z"></path>
		<g>
			<defs>
				<path id="SVGID_5_" d="M568.4,191.5c2.6,0.5,5.1,0.6,7.4-1.6c4.4-4.3,10.5-7.7,15.5-1.6c2.9,3.6-0.8,9,1.5,12.4      c2.1,3,5.5,3.2,6,7.7c0.8,6.6-6.4,10.8-9.4,15.8c-2.5,4.2,0.9,6.6,1.9,10.4c0.8,2.9-0.4,5.7-2.3,8c-3.3,4.1-9.6,6.7-9.4,12.8      c0.1,5.1,0.3,9.7-4.8,12.6c-3.5,2-9.4,3.3-9.9,8.1c-0.2,1.7,0.7,3.4,0.7,5.1c0,2.7-2.2,4.9-4.5,6.3c-5.2,3.2-9.9,6.3-14.2,10.8      c-1.8,1.9-8.5,5.8-6.8,9.2c-3.1-6.2-6.5-12.4-9.2-18.8c-2.2-5.3-5.6-13.1-1.3-18.3c1.3-1.6,3.4-2.6,4.3-4.5      c1.6-3.4-1.3-7.5-2-10.8c-1-5.2,1.3-10.5,5.8-13.4c2-1.4,4.3-2.9,5-5.3c0.8-2.6-0.4-5.4-0.7-7.9c-0.2-2.4-0.3-4.8-0.1-7.2      c0.1-1.7,0.4-3.4,1.1-4.9c1.3-2.9,4.4-4.1,6.8-5.9c5.8-4.2,4.4-10.8,7.7-16.4C560.4,189.3,564.4,190.8,568.4,191.5z"></path>
			</defs>
			<clipPath id="SVGID_6_">
				<use xlink:href="#SVGID_5_" style="overflow:visible;"></use>
			</clipPath>
			<g class="st17">
				<path class="st18" d="M538.3,313.8c2.1-21,7.8-41.5,15.5-61.1c7.3-18.7,15.8-37.3,26.6-54.3c3.5-5.6,7.4-11.1,11.5-16.3"></path>
				<path class="st18" d="M603,212.9c-10.9,1.7-21.5,4.7-31.6,9.1c-2.6,1.1-3.9,1.4-6.2,3"></path>
				<path class="st18" d="M556.2,246.2c11-4.5,22.8-6.6,34.7-6.3"></path>
				<path class="st18" d="M547.2,272.1c10.7-6.2,22.7-9.6,35-9.9"></path>
				<path class="st18" d="M565.9,224.4c1.4-11.1,0.7-22.4-1.9-33.2"></path>
				<path class="st18" d="M556.5,245.3c-2.7-10.8-7.7-20.9-14.5-29.7"></path>
				<path class="st18" d="M546.5,272.7c-0.1-3.2-0.6-6.3-1.6-9.3c-1.3-3.5-2.9-6.8-4.9-9.9c-1.3-2.3-2.7-4.6-4.2-6.8"></path>
			</g>
		</g>
		<polygon class="st19" points="513.3,306.5 565.9,306.5 556.7,359.1 522.5,359.1   "></polygon>
		<rect x="506.9" y="291.8" class="st14" width="65.4" height="14.8"></rect>
		<polygon class="st20" points="564.6,313.5 514.6,313.5 513.3,306.5 565.9,306.5   "></polygon>
		<path class="st21" d="M148.5,29.4h-20.8c-8.9,0-16,7.2-16.1,16.1l0,0c0,5.3,2.6,10.2,7,13.2V70l11.6-8.5h18.3    c8.9,0,16-7.2,16-16.1l0,0C164.6,36.6,157.4,29.4,148.5,29.4z"></path>
		<circle class="st7" cx="126.5" cy="45.5" r="2.4"></circle>
		<circle class="st7" cx="138.1" cy="45.5" r="2.4"></circle>
		<circle class="st7" cx="149.8" cy="45.5" r="2.4"></circle>
		<path class="st21" d="M413.3,177.1c-3.2-5.5-11.3-8.2-19.1,0.9c-7.8-9.1-15.9-6.4-19.1-0.9c-7.9,13.5,19.1,29.4,19.1,29.4    S421.2,190.6,413.3,177.1z"></path>
		<path class="st21" d="M248.2,0.4h23.9c6.6,0,12,5.4,12,12v8c0,6.6-5.4,12-12,12h-23.9c-6.6,0-12-5.4-12-12v-8    C236.2,5.8,241.6,0.4,248.2,0.4z"></path>
		<path class="st22" d="M237,1.4l21,20.3c1.2,1.2,3.2,1.2,4.4,0l21-20.3"></path>
		<line class="st22" x1="237" y1="31.4" x2="254.2" y2="18.1"></line>
		<line class="st22" x1="283.4" y1="31.4" x2="266.2" y2="18.1"></line>
		<path class="st21" d="M159.3,118.7h31.4c6.6,0,12,5.4,12,12v14.5c0,6.6-5.4,12-12,12h-31.4c-6.6,0-12-5.4-12-12v-14.5    C147.3,124.1,152.7,118.7,159.3,118.7z"></path>
		<polygon class="st21" points="175,169.3 184.7,156.2 165.3,156.2   "></polygon>
		<path class="st7" d="M189.5,142.9h-2.4v-6.6v-1.1v-1.2c-0.4,0.4-0.7,0.7-0.8,0.8l-1.2,1l-1.1-1.4l3.6-2.9h2L189.5,142.9z"></path>
		<path class="st7" d="M171.8,131.2h-7.9c-3.4,0-6.1,2.7-6.1,6.1l0,0c0,2,1,3.9,2.6,5v4.3l4.4-3.2h6.9c3.4,0,6.1-2.7,6.1-6.1l0,0    C177.8,133.9,175.1,131.2,171.8,131.2z"></path>
		<path class="st23" d="M4.8,369h583.2c2.7,0,4.8,2.2,4.8,4.8l0,0c0,2.7-2.2,4.8-4.8,4.8H4.8c-2.7,0-4.8-2.2-4.8-4.8l0,0    C0,371.1,2.2,369,4.8,369z"></path>
	</g>
</g>
</svg>